<svg xmlns="http://www.w3.org/2000/svg" width="17" height="17" viewBox="0 0 17 17">
  <defs>
    <style>
      .cls-1 {
        fill: #fff;
        fill-rule: evenodd;
      }
    </style>
  </defs>
  <path id="_" data-name="" class="cls-1" d="M16.426,6.1L11.3,5.316,9,0.441A0.588,0.588,0,0,0,8.5,0,0.588,0.588,0,0,0,8,.441L5.7,5.316,0.574,6.1A0.541,0.541,0,0,0,0,6.59,0.831,0.831,0,0,0,.257,7.1L3.975,10.9,3.1,16.253a1.8,1.8,0,0,0-.02.214,0.653,0.653,0,0,0,.107.38A0.365,0.365,0,0,0,3.505,17a0.838,0.838,0,0,0,.409-0.128L8.5,14.347l4.586,2.528a0.8,0.8,0,0,0,.409.128,0.355,0.355,0,0,0,.312-0.155,0.653,0.653,0,0,0,.107-0.38,1.719,1.719,0,0,0-.01-0.214L13.025,10.9,16.733,7.1A0.787,0.787,0,0,0,17,6.59,0.541,0.541,0,0,0,16.426,6.1h0Z"/>
</svg>
