<svg version="1.1" id="Layer_1" xmlns="http://www.w3.org/2000/svg" xmlns:xlink="http://www.w3.org/1999/xlink" x="0px" y="0px"
	 width="60px" height="15px" viewBox="0 0 60 15" enable-background="new 0 0 60 15" xml:space="preserve">
<g>
	<g>
		<g>
			<path d="M53.054,13.915c-0.365,0-0.731-0.14-1.01-0.419c-0.558-0.557-0.558-1.461,0-2.02l4.517-4.52l-4.517-4.519
				c-0.558-0.558-0.558-1.463,0-2.02c0.558-0.558,1.462-0.558,2.02,0l5.523,5.53c0.559,0.558,0.559,1.462,0,2.019l-5.523,5.529
				C53.785,13.775,53.42,13.915,53.054,13.915L53.054,13.915z"/>
		</g>
	</g>
	<g>
		<g>
			<path d="M58.577,8.386H1.53c-0.79,0-1.429-0.64-1.429-1.429S0.741,5.529,1.53,5.529h57.047c0.79,0,1.429,0.639,1.429,1.428
				S59.367,8.386,58.577,8.386L58.577,8.386z"/>
		</g>
	</g>
</g>
</svg>